<?xml version="1.0" encoding="UTF-8"?>
<svg xmlns="http://www.w3.org/2000/svg" xmlns:xlink="http://www.w3.org/1999/xlink" viewBox="0 0 90 90" width="90px" height="90px">
<g id="surface58889075">
<rect x="0" y="0" width="90" height="90" style="fill:rgb(100%,100%,100%);fill-opacity:1;stroke:none;"/>
<path style=" stroke:none;fill-rule:nonzero;fill:rgb(40.000001%,40.000001%,40.000001%);fill-opacity:1;" d="M 9 21 C 7.917969 20.984375 6.910156 21.554688 6.367188 22.488281 C 5.820312 23.421875 5.820312 24.578125 6.367188 25.511719 C 6.910156 26.445312 7.917969 27.015625 9 27 L 81 27 C 82.082031 27.015625 83.089844 26.445312 83.632812 25.511719 C 84.179688 24.578125 84.179688 23.421875 83.632812 22.488281 C 83.089844 21.554688 82.082031 20.984375 81 21 Z M 9 42 C 7.917969 41.984375 6.910156 42.554688 6.367188 43.488281 C 5.820312 44.421875 5.820312 45.578125 6.367188 46.511719 C 6.910156 47.445312 7.917969 48.015625 9 48 L 81 48 C 82.082031 48.015625 83.089844 47.445312 83.632812 46.511719 C 84.179688 45.578125 84.179688 44.421875 83.632812 43.488281 C 83.089844 42.554688 82.082031 41.984375 81 42 Z M 9 63 C 7.917969 62.984375 6.910156 63.554688 6.367188 64.488281 C 5.820312 65.421875 5.820312 66.578125 6.367188 67.511719 C 6.910156 68.445312 7.917969 69.015625 9 69 L 81 69 C 82.082031 69.015625 83.089844 68.445312 83.632812 67.511719 C 84.179688 66.578125 84.179688 65.421875 83.632812 64.488281 C 83.089844 63.554688 82.082031 62.984375 81 63 Z M 9 63 "/>
</g>
</svg>
